<svg xmlns="http://www.w3.org/2000/svg" viewBox="0 0 640 640"><!--!Font Awesome Free 7.1.0 by @fontawesome - https://fontawesome.com License - https://fontawesome.com/license/free Copyright 2025 Fonticons, Inc.--><path d="M152.2 190.4C157.2 201.2 169.3 206.8 180.9 204.1L265.5 184.1C277.3 181.3 285.8 170.9 285.8 158.7L285.8 85.3C285.8 72.8 294.6 62 306.7 59.5C370.4 47.3 435.2 47.3 498.9 59.5C511 62 519.8 72.8 519.8 85.3L519.8 158.7C519.8 170.9 528.3 181.3 540.1 184.1L624.7 204.1C636.3 206.8 648.4 201.2 653.4 190.4C660.9 174.5 666.2 158 670.2 141.2C673 129.1 664.2 117.2 651.8 114.4C515.6 85 372 85 235.8 114.4C223.4 117.2 214.6 129.1 217.4 141.2C221.4 158 226.7 174.5 234.2 190.4L152.2 190.4zM519.8 277.3L519.8 554.7C519.8 567.2 511 578 498.9 580.5C435.2 592.7 370.4 592.7 306.7 580.5C294.6 578 285.8 567.2 285.8 554.7L285.8 277.3C285.8 264.9 294.6 254.1 306.7 251.5C370.4 239.3 435.2 239.3 498.9 251.5C511 254.1 519.8 264.9 519.8 277.3zM116.8 288C100 288 86.4 301.6 86.4 318.4L86.4 321.6C86.4 338.4 100 352 116.8 352L237.8 352L237.8 288L116.8 288zM86.4 446.4C86.4 463.2 100 476.8 116.8 476.8L237.8 476.8L237.8 412.8L116.8 412.8C100 412.8 86.4 426.4 86.4 443.2L86.4 446.4zM688.8 476.8C705.6 476.8 719.2 463.2 719.2 446.4L719.2 443.2C719.2 426.4 705.6 412.8 688.8 412.8L567.8 412.8L567.8 476.8L688.8 476.8zM719.2 321.6C719.2 304.8 705.6 291.2 688.8 291.2L567.8 291.2L567.8 355.2L688.8 355.2C705.6 355.2 719.2 341.6 719.2 324.8L719.2 321.6z"/></svg>
